{"title":"The Boys Are Back.2009.DvDRip.XViD.AC3(5.1).Swesub","uid":5494346,"size":736727344,"categoryP":"video","categoryS":"movies","magnet":"?xt=urn:btih:441ebdb2f46a0a89e2106bf5e5b877ded3be1b30&amp;dn=The+Boys+Are+Back.2009.DvDRip.XViD.AC3%285.1%29.Swesub&amp;tr=udp%3A%2F%2Ftracker.openbittorrent.com%3A80&amp;tr=udp%3A%2F%2Fopen.demonii.com%3A1337&amp;tr=udp%3A%2F%2Ftracker.coppersurfer.tk%3A6969&amp;tr=udp%3A%2F%2Fexodus.desync.com%3A6969","seeders":1,"leechers":0,"uploader":"Zen_Bud","files":-1,"time":1271176773,"description":"General\nComplete name                    : The Boys Are Back.avi\nFormat                           : AVI\nFormat/Info                      : Audio Video Interleave\nFile size                        : 703 MiB\nDuration                         : 1h 39mn\nOverall bit rate                 : 985 Kbps\n\nVideo\nID                               : 0\nFormat                           : MPEG-4 Visual\nCodec ID/Hint                    : XviD\nDuration                         : 1h 39mn\nBit rate                         : 590 Kbps\nWidth                            : 718 pixels\nHeight                           : 436 pixels\nDisplay aspect ratio             : 2.35:1\nFrame rate                       : 25.000 fps\nResolution                       : 8 bits\nColorimetry                      : 4:2:0\nScan type                        : Progressive\nBits/(Pixel*Frame)               : 0.075\nStream size                      : 421 MiB (60%)\nWriting library                  : XviD 1.1.2 (UTC 2006-11-01)\n\nAudio\nID                               : 1\nFormat                           : AC-3\nFormat/Info                      : Audio Coding 3\nCodec ID                         : 2000\nDuration                         : 1h 39mn\nBit rate mode                    : Constant\nBit rate                         : 384 Kbps\nChannel(s)                       : 6 channels\nChannel positions                : Front: L C R, Side: L R, LFE\nSampling rate                    : 48.0 KHz\nStream size                      : 274 MiB (39%)\nAlignment                        : Aligned on interleaves\nInterleave, duration             : 32 ms (0.80 video frame)\nInterleave, preload duration     : 512 ms\n\n","torrent":{"xt":"urn:btih:441ebdb2f46a0a89e2106bf5e5b877ded3be1b30","amp;dn":"The+Boys+Are+Back.2009.DvDRip.XViD.AC3%285.1%29.Swesub","amp;tr":["udp%3A%2F%2Ftracker.openbittorrent.com%3A80","udp%3A%2F%2Fopen.demonii.com%3A1337","udp%3A%2F%2Ftracker.coppersurfer.tk%3A6969","udp%3A%2F%2Fexodus.desync.com%3A6969"],"infoHash":"441ebdb2f46a0a89e2106bf5e5b877ded3be1b30","infoHashBuffer":{"type":"Buffer","data":[68,30,189,178,244,106,10,137,226,16,107,245,229,184,119,222,211,190,27,48]},"announce":[],"urlList":[]}}